<svg width="30" height="24" viewBox="0 0 30 24" fill="none" xmlns="http://www.w3.org/2000/svg">
<path d="M29.1666 10.5H27.6301C27.1718 9.5625 26.5051 8.73281 25.6821 8.03906L26.6665 4.5H24.9998C23.4685 4.5 22.1143 5.13281 21.1976 6.10781C20.8017 6.05625 20.4111 6 19.9996 6H13.3327C9.30127 6 5.94177 8.57812 5.16569 12H2.91561C2.14474 12 1.53534 11.3672 1.6916 10.65C1.80619 10.1156 2.3635 9.75 2.96769 9.75H3.01978C3.19166 9.75 3.33229 9.62344 3.33229 9.46875V8.53125C3.33229 8.37656 3.19166 8.25 3.01978 8.25C1.53534 8.25 0.212376 9.20625 0.0248685 10.5281C-0.204307 12.1313 1.18116 13.5 2.91561 13.5H4.99902C4.99902 15.9469 6.32199 18.0984 8.33249 19.4672V23.25C8.33249 23.6625 8.7075 24 9.16585 24H12.4993C12.9577 24 13.3327 23.6625 13.3327 23.25V21H19.9996V23.25C19.9996 23.6625 20.3746 24 20.833 24H24.1664C24.6248 24 24.9998 23.6625 24.9998 23.25V19.4672C25.6144 19.05 26.1613 18.5578 26.6301 18H29.1666C29.625 18 30 17.6625 30 17.25V11.25C30 10.8375 29.625 10.5 29.1666 10.5ZM22.4997 13.5C22.0414 13.5 21.6663 13.1625 21.6663 12.75C21.6663 12.3375 22.0414 12 22.4997 12C22.9581 12 23.3331 12.3375 23.3331 12.75C23.3331 13.1625 22.9581 13.5 22.4997 13.5ZM13.3327 4.5H19.9996C20.2809 4.5 20.5569 4.51875 20.8278 4.5375C20.8278 4.52344 20.833 4.51406 20.833 4.5C20.833 2.01562 18.5933 0 15.8328 0C13.0723 0 10.8326 2.01562 10.8326 4.5C10.8326 4.59844 10.8586 4.69219 10.8638 4.79062C11.6555 4.60781 12.4785 4.5 13.3327 4.5Z" fill="#30A971"/>
</svg>
