<svg width="65" height="64" viewBox="0 0 65 64" fill="none" xmlns="http://www.w3.org/2000/svg">
<g clip-path="url(#clip0)">
<path d="M23.5 44V33C23.5 32.7348 23.3946 32.4804 23.2071 32.2929C23.0196 32.1054 22.7652 32 22.5 32H18.5C18.2348 32 17.9804 32.1054 17.7929 32.2929C17.6054 32.4804 17.5 32.7348 17.5 33V44H19.5V34H21.5V44H23.5Z" fill="#018D8F"/>
<path d="M39.5 48V34C39.5 33.7348 39.3946 33.4804 39.2071 33.2929C39.0196 33.1054 38.7652 33 38.5 33H34.5C34.2348 33 33.9804 33.1054 33.7929 33.2929C33.6054 33.4804 33.5 33.7348 33.5 34V48H35.5V35H37.5V48H39.5Z" fill="#018D8F"/>
<path d="M31.5 48V30C31.5 29.7348 31.3946 29.4804 31.2071 29.2929C31.0196 29.1054 30.7652 29 30.5 29H26.5C26.2348 29 25.9804 29.1054 25.7929 29.2929C25.6054 29.4804 25.5 29.7348 25.5 30V46H27.5V31H29.5V48H31.5Z" fill="#018D8F"/>
<path d="M47.5 40V30C47.5 29.7348 47.3946 29.4804 47.2071 29.2929C47.0196 29.1054 46.7652 29 46.5 29H42.5C42.2348 29 41.9804 29.1054 41.7929 29.2929C41.6054 29.4804 41.5 29.7348 41.5 30V41H43.5V31H45.5V40H47.5Z" fill="#018D8F"/>
<path d="M55.5 39V24C55.5 23.7348 55.3946 23.4804 55.2071 23.2929C55.0196 23.1054 54.7652 23 54.5 23H50.5C50.2348 23 49.9804 23.1054 49.7929 23.2929C49.6054 23.4804 49.5 23.7348 49.5 24V39H51.5V25H53.5V39H55.5Z" fill="#018D8F"/>
<path d="M17.7929 29.7071C17.9804 29.8946 18.2348 30 18.5 30C18.7653 30 19.0196 29.8946 19.2072 29.7071L27.4618 21.4524L35.7567 30.6689C35.8476 30.7699 35.958 30.8512 36.0812 30.9081C36.2045 30.9649 36.3381 30.9961 36.4738 30.9996C36.4826 30.9999 36.4912 31 36.5 31C36.7653 31 37.0196 30.8946 37.2072 30.7071L50.5 17.4143V20C50.5 20.2652 50.6054 20.5196 50.7929 20.7071C50.9805 20.8946 51.2348 21 51.5 21H55.5C55.7652 21 56.0196 20.8946 56.2071 20.7071C56.3947 20.5196 56.5 20.2652 56.5 20V8C56.5 7.73478 56.3947 7.48043 56.2071 7.2929C56.0196 7.10536 55.7652 7 55.5 7H43.5C43.2348 7 42.9805 7.10536 42.7929 7.2929C42.6054 7.48043 42.5 7.73478 42.5 8V12C42.5 12.2652 42.6054 12.5196 42.7929 12.7071C42.9805 12.8946 43.2348 13 43.5 13H46.0858L36.5382 22.5476L28.2433 13.3311C28.1525 13.2302 28.0421 13.1488 27.9188 13.0919C27.7956 13.0351 27.662 13.0039 27.5263 13.0004C27.3906 12.9968 27.2556 13.0209 27.1295 13.0712C27.0034 13.1215 26.8889 13.1969 26.7929 13.2929L14.7929 25.2929C14.6054 25.4804 14.5 25.7348 14.5 26C14.5 26.2652 14.6054 26.5196 14.7929 26.7071L17.7929 29.7071ZM27.4618 15.4524L35.7567 24.6689C35.8476 24.7698 35.958 24.8512 36.0812 24.9081C36.2045 24.9649 36.3381 24.9961 36.4738 24.9996C36.6095 25.0032 36.7445 24.9791 36.8706 24.9288C36.9967 24.8785 37.1112 24.8031 37.2072 24.7071L49.2072 12.7071C49.347 12.5672 49.4422 12.389 49.4808 12.1951C49.5194 12.0011 49.4996 11.8 49.4239 11.6173C49.3482 11.4346 49.22 11.2784 49.0556 11.1686C48.8911 11.0587 48.6978 11 48.5 11H44.5V9H54.5V19H52.5V15C52.5 14.8022 52.4414 14.6089 52.3315 14.4444C52.2216 14.28 52.0654 14.1518 51.8827 14.0761C51.7 14.0004 51.4989 13.9806 51.3049 14.0192C51.1109 14.0578 50.9327 14.153 50.7929 14.2929L36.5382 28.5476L28.2433 19.3311C28.1525 19.2301 28.0421 19.1488 27.9188 19.0919C27.7955 19.0351 27.662 19.0039 27.5263 19.0004C27.5175 19.0001 27.5088 19 27.5 19C27.2348 19 26.9804 19.1054 26.7929 19.2929L18.5 27.5858L16.9142 26L27.4618 15.4524Z" fill="#018D8F"/>
<path d="M11.5 66.0001V64.0001H14.5C14.7652 64.0001 15.0196 63.8947 15.2071 63.7072C15.3946 63.5196 15.5 63.2653 15.5 63.0001V60.3801C20.275 64.7632 26.5583 67.1327 33.0385 66.9941C39.5187 66.8555 45.695 64.2196 50.2782 59.6364L61.2072 48.7077C61.868 48.047 62.2643 47.1674 62.3215 46.2347C62.3787 45.302 62.0928 44.3806 61.5177 43.6441C60.9426 42.9076 60.118 42.4068 59.1993 42.2362C58.2806 42.0655 57.3312 42.2368 56.5299 42.7177C56.1885 42.1893 55.7243 41.7514 55.1769 41.4415C54.6295 41.1315 54.0153 40.9587 53.3866 40.9377C52.7578 40.9168 52.1334 41.0483 51.5666 41.3211C50.9998 41.5939 50.5074 41.9999 50.1316 42.5043L49.7076 43.0732C49.4908 42.9068 49.2587 42.7615 49.0144 42.6392C48.4971 42.3806 47.9328 42.2291 47.3555 42.194C46.7782 42.1589 46.1998 42.2408 45.6549 42.4348C45.11 42.6289 44.61 42.9311 44.1849 43.3232C43.7597 43.7153 43.4182 44.1894 43.1809 44.7168L40.66 50.3187C40.132 50.108 39.5686 49.9999 39 50.0001H26.9142L25.2072 48.293C23.9545 47.0438 22.3266 46.24 20.5731 46.0048C18.8197 45.7697 17.0376 46.1162 15.5 46.9913V46.0001C15.5 45.7349 15.3946 45.4805 15.2071 45.293C15.0196 45.1054 14.7652 45.0001 14.5 45.0001H11.5V44.0001C11.5 43.7349 11.3946 43.4805 11.2071 43.293C11.0196 43.1054 10.7652 43.0001 10.5 43.0001H2.5V45.0001H9.5V65.0001H2.5V67.0001H10.5C10.7652 67.0001 11.0196 66.8947 11.2071 66.7072C11.3946 66.5196 11.5 66.2653 11.5 66.0001ZM54.2334 43.2063C54.5751 43.4116 54.8432 43.7197 54.9994 44.0864L47.0649 52.0209C46.0029 53.0844 44.8039 54.0017 43.4996 54.7485L51.7351 43.6996C52.0155 43.3213 52.4269 43.0611 52.8889 42.9698C53.3509 42.8786 53.8303 42.9629 54.2334 43.2063ZM45.0046 45.5375C45.1314 45.2558 45.3138 45.0027 45.5408 44.7933C45.7678 44.5839 46.0349 44.4225 46.3258 44.3189C46.6168 44.2153 46.9257 44.1715 47.234 44.1903C47.5423 44.2091 47.8436 44.2899 48.1199 44.4281C48.2586 44.4977 48.39 44.5812 48.5119 44.6773L42.8828 52.2295C42.7253 51.9607 42.5406 51.7089 42.3314 51.478L45.0046 45.5375ZM23.7928 49.7072L25.7928 51.7072C25.9804 51.8947 26.2348 52.0001 26.5 52.0001H39C39.663 52.0001 40.2989 52.2635 40.7678 52.7323C41.2366 53.2011 41.5 53.837 41.5 54.5001C41.5 55.1631 41.2366 55.799 40.7678 56.2678C40.2989 56.7367 39.663 57.0001 39 57.0001H26.5V59.0001H39C39.6188 59.0002 40.2309 58.8724 40.7979 58.6247C41.365 58.377 41.8746 58.0147 42.2949 57.5605C44.6093 56.6086 46.7115 55.2063 48.4793 53.4351L57.207 44.7073C57.55 44.3644 58.0151 44.1717 58.5001 44.1717C58.9851 44.1717 59.4502 44.3644 59.7932 44.7074C60.1361 45.0503 60.3287 45.5154 60.3287 46.0004C60.3287 46.4854 60.136 46.9505 59.7931 47.2935L48.8639 58.2221C44.5238 62.562 38.6375 65.0001 32.4999 65.0001C26.3622 65 20.476 62.5618 16.136 58.2218L15.5 57.5858V49.4349C16.6595 48.4211 18.1607 47.8853 19.7001 47.9359C21.2395 47.9864 22.7023 48.6195 23.7928 49.7072ZM13.5 47.0001V62.0001H11.5V47.0001H13.5Z" fill="#018D8F"/>
</g>
<defs>
<clipPath id="clip0">
<rect width="64" height="64" fill="white" transform="translate(0.5)"/>
</clipPath>
</defs>
</svg>
