<svg width="65" height="64" viewBox="0 0 65 64" fill="none" xmlns="http://www.w3.org/2000/svg">
<g clip-path="url(#clip0)">
<path d="M48.5 64C48.324 64 48.148 63.9654 47.9827 63.896C47.348 63.6267 32.5 57.2107 32.5 44.096V32.952C32.5 32.3787 32.8653 31.872 33.4067 31.688L48.0733 26.736C48.3507 26.6427 48.652 26.6427 48.9267 26.736L63.5933 31.688C64.1347 31.8693 64.5 32.3787 64.5 32.952V44.096C64.5 57.2107 49.652 63.6267 49.0173 63.896C48.852 63.9654 48.676 64 48.5 64ZM35.1667 33.912V44.096C35.1667 54.1867 45.98 59.984 48.5 61.1973C51.0173 59.9813 61.8333 54.16 61.8333 44.096V33.912L48.5 29.408L35.1667 33.912Z" fill="#018D8F"/>
<path d="M47.1669 50.6667C47.1429 50.6667 47.1162 50.6667 47.0949 50.664C46.7135 50.6427 46.3642 50.464 46.1269 50.1653L40.7935 43.4987C40.3349 42.9227 40.4255 42.0853 41.0015 41.624C41.5802 41.1707 42.4149 41.2613 42.8762 41.832L47.2762 47.3333L55.5562 39.056C56.0762 38.536 56.9215 38.536 57.4415 39.056C57.9615 39.576 57.9615 40.4213 57.4415 40.9413L48.1082 50.2747C47.8602 50.5253 47.5189 50.6667 47.1669 50.6667Z" fill="#018D8F"/>
<path d="M49.8333 21.3334H9.83333C4.68667 21.3334 0.5 17.1467 0.5 12.0001C0.5 6.85342 4.68667 2.66675 9.83333 2.66675H49.8333C54.98 2.66675 59.1667 6.85342 59.1667 12.0001C59.1667 17.1467 54.98 21.3334 49.8333 21.3334ZM9.83333 5.33341C6.156 5.33341 3.16667 8.32275 3.16667 12.0001C3.16667 15.6774 6.156 18.6667 9.83333 18.6667H49.8333C53.5107 18.6667 56.5 15.6774 56.5 12.0001C56.5 8.32275 53.5107 5.33341 49.8333 5.33341H9.83333Z" fill="#018D8F"/>
<path d="M12.5 16C10.2947 16 8.5 14.2053 8.5 12C8.5 9.79467 10.2947 8 12.5 8C14.7053 8 16.5 9.79467 16.5 12C16.5 14.2053 14.7053 16 12.5 16ZM12.5 10.6667C11.7667 10.6667 11.1667 11.2667 11.1667 12C11.1667 12.7333 11.7667 13.3333 12.5 13.3333C13.2333 13.3333 13.8333 12.7333 13.8333 12C13.8333 11.2667 13.2333 10.6667 12.5 10.6667Z" fill="#018D8F"/>
<path d="M25.8335 16C23.6282 16 21.8335 14.2053 21.8335 12C21.8335 9.79467 23.6282 8 25.8335 8C28.0388 8 29.8335 9.79467 29.8335 12C29.8335 14.2053 28.0388 16 25.8335 16ZM25.8335 10.6667C25.1002 10.6667 24.5002 11.2667 24.5002 12C24.5002 12.7333 25.1002 13.3333 25.8335 13.3333C26.5668 13.3333 27.1668 12.7333 27.1668 12C27.1668 11.2667 26.5668 10.6667 25.8335 10.6667Z" fill="#018D8F"/>
<path d="M25.8333 37.3332H9.83333C4.68667 37.3332 0.5 33.1465 0.5 27.9998C0.5 25.5092 1.47067 23.1678 3.236 21.4025C5.00133 19.6372 7.34267 18.6665 9.83333 18.6665H49.8333C51.9187 18.6665 53.884 19.3358 55.508 20.6025C56.0893 21.0558 56.1933 21.8932 55.74 22.4745C55.2867 23.0532 54.4493 23.1572 53.868 22.7065C52.716 21.8078 51.3213 21.3332 49.8333 21.3332H9.83333C8.05733 21.3332 6.38267 22.0292 5.12133 23.2878C3.86 24.5465 3.16667 26.2238 3.16667 27.9998C3.16667 31.6772 6.156 34.6665 9.83333 34.6665H25.8333C26.5693 34.6665 27.1667 35.2638 27.1667 35.9998C27.1667 36.7358 26.5693 37.3332 25.8333 37.3332Z" fill="#018D8F"/>
<path d="M12.5 32C10.2947 32 8.5 30.2053 8.5 28C8.5 25.7947 10.2947 24 12.5 24C14.7053 24 16.5 25.7947 16.5 28C16.5 30.2053 14.7053 32 12.5 32ZM12.5 26.6667C11.7667 26.6667 11.1667 27.2667 11.1667 28C11.1667 28.7333 11.7667 29.3333 12.5 29.3333C13.2333 29.3333 13.8333 28.7333 13.8333 28C13.8333 27.2667 13.2333 26.6667 12.5 26.6667Z" fill="#018D8F"/>
<path d="M25.8335 32C23.6282 32 21.8335 30.2053 21.8335 28C21.8335 25.7947 23.6282 24 25.8335 24C28.0388 24 29.8335 25.7947 29.8335 28C29.8335 30.2053 28.0388 32 25.8335 32ZM25.8335 26.6667C25.1002 26.6667 24.5002 27.2667 24.5002 28C24.5002 28.7333 25.1002 29.3333 25.8335 29.3333C26.5668 29.3333 27.1668 28.7333 27.1668 28C27.1668 27.2667 26.5668 26.6667 25.8335 26.6667Z" fill="#018D8F"/>
<path d="M25.8333 53.3334H9.83333C4.68667 53.3334 0.5 49.1467 0.5 44.0001C0.5 41.5094 1.47067 39.1681 3.236 37.4027C5.00133 35.6374 7.34267 34.6667 9.83333 34.6667H25.8333C26.5693 34.6667 27.1667 35.2641 27.1667 36.0001C27.1667 36.7361 26.5693 37.3334 25.8333 37.3334H9.83333C8.05733 37.3334 6.38267 38.0294 5.12133 39.2881C3.86 40.5467 3.16667 42.2241 3.16667 44.0001C3.16667 47.6774 6.156 50.6667 9.83333 50.6667H25.8333C26.5693 50.6667 27.1667 51.2641 27.1667 52.0001C27.1667 52.7361 26.5693 53.3334 25.8333 53.3334Z" fill="#018D8F"/>
<path d="M12.5 48C10.2947 48 8.5 46.2053 8.5 44C8.5 41.7947 10.2947 40 12.5 40C14.7053 40 16.5 41.7947 16.5 44C16.5 46.2053 14.7053 48 12.5 48ZM12.5 42.6667C11.7667 42.6667 11.1667 43.2667 11.1667 44C11.1667 44.7333 11.7667 45.3333 12.5 45.3333C13.2333 45.3333 13.8333 44.7333 13.8333 44C13.8333 43.2667 13.2333 42.6667 12.5 42.6667Z" fill="#018D8F"/>
<path d="M25.8335 48C23.6282 48 21.8335 46.2053 21.8335 44C21.8335 41.7947 23.6282 40 25.8335 40C28.0388 40 29.8335 41.7947 29.8335 44C29.8335 46.2053 28.0388 48 25.8335 48ZM25.8335 42.6667C25.1002 42.6667 24.5002 43.2667 24.5002 44C24.5002 44.7333 25.1002 45.3333 25.8335 45.3333C26.5668 45.3333 27.1668 44.7333 27.1668 44C27.1668 43.2667 26.5668 42.6667 25.8335 42.6667Z" fill="#018D8F"/>
</g>
<defs>
<clipPath id="clip0">
<rect width="64" height="64" fill="white" transform="translate(0.5)"/>
</clipPath>
</defs>
</svg>
