<svg width="64" height="64" viewBox="0 0 64 64" fill="none" xmlns="http://www.w3.org/2000/svg">
<path d="M32 0L3.86401 8.02812V22.1336C3.86401 40.2531 14.6308 56.5721 31.2498 63.6997L32 64L32.7503 63.6997C49.3693 56.5721 60.136 40.2531 60.136 22.1336V8.02812L32 0Z" fill="#C6CFD7"/>
<path d="M60.136 8.02812V22.1336C60.136 40.2531 49.3693 56.5721 32.7503 63.6997L32 64V0L60.136 8.02812Z" fill="#A4B7C7"/>
<path d="M32 7.80371L11.367 13.6936V22.1343C11.367 36.0146 18.9451 48.6946 31.0998 55.2972L32.0001 55.785L32.9005 55.2972C45.0553 48.6946 52.6333 36.0147 52.6333 22.1343V13.6936L32 7.80371Z" fill="#30A971"/>
<path d="M52.633 13.6936V22.1343C52.633 36.0146 45.0549 48.6946 32.9002 55.2972L32 55.7848V7.80371L52.633 13.6936Z" fill="#339165"/>
</svg>
