<svg width="65" height="64" viewBox="0 0 65 64" fill="none" xmlns="http://www.w3.org/2000/svg">
<g clip-path="url(#clip0)">
<path d="M26.332 51.6063H13.9672C12.2164 51.6063 10.7921 50.182 10.7921 48.4312V44.9543C11.0698 45.0189 11.355 45.0548 11.6446 45.0548C11.7762 45.0548 11.9088 45.048 12.0417 45.0342C12.2595 45.0115 12.4724 44.9698 12.6791 44.9119V48.4312C12.6791 49.1415 13.2569 49.7193 13.9672 49.7193H26.0843C26.6054 49.7193 27.0278 49.297 27.0278 48.7758C27.0278 48.2546 26.6054 47.8323 26.0843 47.8323H14.5661V43.68C14.5724 43.6724 14.5792 43.6652 14.5854 43.6574C15.8284 42.1267 15.6728 39.9096 14.2818 38.5626C14.8893 38.3349 15.4464 37.9494 15.884 37.4104C17.1271 35.8798 16.9715 33.6626 15.5805 32.3157C16.188 32.088 16.745 31.7024 17.1827 31.1635C17.819 30.3798 18.1121 29.3953 18.008 28.3913C17.9038 27.3874 17.4149 26.4839 16.6313 25.8476L14.566 24.1704V5.66096H18.7438L18.7708 5.74625C19.0852 6.73682 19.9946 7.40244 21.0339 7.40244H28.3263C29.3655 7.40244 30.2749 6.73695 30.5894 5.74613L30.6167 5.66096H34.3661V18.7545C34.3661 19.2757 34.7885 19.698 35.3097 19.698C35.8309 19.698 36.2532 19.2757 36.2532 18.7545V5.06201C36.2532 4.35174 35.6754 3.77393 34.9652 3.77393H30.3625C29.6887 3.77393 29.0989 4.20555 28.895 4.8479L28.7911 5.17536C28.7266 5.37878 28.5399 5.51541 28.3265 5.51541H21.0341C20.8209 5.51541 20.6342 5.37878 20.5697 5.17549L20.4657 4.8479C20.2619 4.20555 19.6723 3.77393 18.9983 3.77393H13.9672C13.2569 3.77393 12.6791 4.35186 12.6791 5.06201V22.643C12.1217 22.2277 11.4727 21.9783 10.7921 21.9131V12.3096C10.7921 11.7884 10.3696 11.3661 9.84854 11.3661C9.33062 11.3661 8.91056 11.7834 8.90553 12.3002C8.21261 11.8889 7.40937 11.711 6.59329 11.7957C5.58926 11.8999 4.68587 12.3887 4.04956 13.1724C3.41326 13.956 3.12014 14.9405 3.22418 15.9445C3.32834 16.9484 3.81721 17.852 4.60083 18.4883L8.90503 21.9835V22.2139C8.3603 22.4523 7.87634 22.818 7.49063 23.2929C6.85433 24.0765 6.56121 25.061 6.66524 26.0651C6.75771 26.957 7.15462 27.7691 7.7913 28.3855C7.17097 28.6184 6.62071 29.0119 6.19185 29.5399C4.94855 31.071 5.10442 33.2886 6.49617 34.6356C5.88842 34.8629 5.33099 35.2476 4.89319 35.7868C4.25676 36.5704 3.96364 37.555 4.06781 38.559C4.17197 39.5629 4.66084 40.4664 5.44446 41.1028L8.9049 43.9129V48.4311C8.9049 51.2224 11.1758 53.4932 13.9671 53.4932H26.3319C26.853 53.4932 27.2754 53.0709 27.2754 52.5497C27.2754 52.0285 26.8531 51.6063 26.332 51.6063ZM5.79042 17.0233C5.39816 16.7048 5.15335 16.2525 5.10115 15.7498C5.04906 15.2471 5.19575 14.7542 5.51441 14.3618C5.83294 13.9696 6.2852 13.7249 6.78803 13.6725C7.29023 13.6202 7.78363 13.767 8.17588 14.0858L8.90503 14.678V19.5525L5.79042 17.0233ZM8.9556 24.4824C9.27413 24.0901 9.72639 23.8454 10.2292 23.7931C10.2956 23.7862 10.3619 23.7828 10.428 23.7828C10.8605 23.7828 11.2768 23.93 11.6172 24.2063L15.4421 27.3123C15.8343 27.6308 16.0792 28.0831 16.1314 28.5858C16.1834 29.0885 16.0368 29.5814 15.7182 29.9736C15.0605 30.7835 13.8667 30.9077 13.0566 30.2496L9.23174 27.1437C8.83948 26.8252 8.59467 26.3729 8.54247 25.8702C8.49026 25.3676 8.63707 24.8747 8.9556 24.4824ZM7.65694 30.7294C7.97548 30.3372 8.42773 30.0925 8.93057 30.0402C9.41239 29.9907 9.88452 30.125 10.2685 30.4167L11.8669 31.7147C11.885 31.7294 11.9042 31.7416 11.9224 31.756L14.1432 33.5594C14.9531 34.2171 15.0769 35.4111 14.4192 36.2208C13.7615 37.0306 12.5675 37.1545 11.7576 36.4968L7.93283 33.3909C7.12304 32.7333 6.99925 31.5394 7.65694 30.7294ZM5.94503 38.3644C5.89295 37.8618 6.03963 37.3689 6.35829 36.9765C6.73167 36.5167 7.27803 36.278 7.82879 36.278C8.2257 36.278 8.62411 36.4036 8.96252 36.658L10.5683 37.9619C10.5866 37.9769 10.6063 37.9894 10.6249 38.0038L12.8447 39.8065C13.6546 40.4641 13.7784 41.6581 13.1207 42.4679C12.802 42.8602 12.3497 43.105 11.847 43.1572C11.3445 43.2092 10.8514 43.0625 10.4592 42.7439L6.63442 39.638C6.24192 39.3195 5.99711 38.8671 5.94503 38.3644Z" fill="#018D8F"/>
<path d="M9.84879 9.23237C10.3699 9.23237 10.7923 8.81006 10.7923 8.28886V5.06216C10.7923 3.31137 12.2168 1.88703 13.9674 1.88703H34.9653C36.716 1.88703 38.1403 3.31137 38.1403 5.06216V22.4727C38.1403 22.9939 38.5627 23.4162 39.0839 23.4162C39.6051 23.4162 40.0274 22.9939 40.0274 22.4727V5.06216C40.0275 2.27086 37.7566 0 34.9653 0H13.9674C11.1761 0 8.90527 2.27086 8.90527 5.06216V8.28873C8.90527 8.80993 9.32772 9.23237 9.84879 9.23237Z" fill="#018D8F"/>
<path d="M61.5714 62.4454L55.1345 54.8734C54.7969 54.4764 54.2015 54.4282 53.8046 54.7657C53.4076 55.1033 53.3593 55.6987 53.6969 56.0956L60.1339 63.6676C60.3204 63.8871 60.586 64.0001 60.8532 64.0001C61.0692 64.0001 61.2863 63.9264 61.4638 63.7754C61.8608 63.4379 61.9091 62.8423 61.5714 62.4454Z" fill="#018D8F"/>
<path d="M38.4688 59.8232C38.3224 59.632 38.1084 59.5041 37.8706 59.4656C34.5903 58.9354 31.9372 56.3922 31.2687 53.1373L30.9209 51.4439C30.5274 49.5279 30.8442 47.5368 31.8129 45.8375L36.4803 37.6491C37.0873 36.5844 36.9925 35.2717 36.239 34.3049L31.8673 28.6973C30.5883 27.0567 30.6525 24.7281 32.0197 23.1605L32.2533 22.8925C32.3782 22.7493 32.5337 22.7254 32.6151 22.7237C32.6986 22.7211 32.8529 22.7402 32.9832 22.8785L37.1547 27.3044C37.5121 27.6837 38.1091 27.7011 38.4886 27.3438C38.8677 26.9864 38.8853 26.3892 38.5279 26.0099L34.3565 21.5841C33.8969 21.0963 33.249 20.823 32.5788 20.8369C31.9086 20.8499 31.2717 21.1469 30.8311 21.652L30.5975 21.92C28.6375 24.1673 28.5457 27.5053 30.3791 29.8573L34.7507 35.465C35.0323 35.8261 35.0678 36.3166 34.8409 36.7146L30.1735 44.9029C28.9778 47.0005 28.5868 49.4583 29.0725 51.8234L29.4202 53.5168C30.2196 57.4093 33.3181 60.4772 37.1926 61.26L39.0096 63.6305C39.1954 63.8729 39.4756 64.0001 39.7592 64.0001C39.9593 64.0001 40.1612 63.9365 40.3324 63.8053C40.7461 63.4883 40.8243 62.896 40.5073 62.4825L38.4688 59.8232Z" fill="#018D8F"/>
<path d="M50.0868 48.9355C49.8819 48.6944 49.769 48.3875 49.769 48.0712V43.2136C49.769 39.8108 48.4837 36.5731 46.1498 34.0968L41.2869 28.9374C40.9295 28.5581 40.3323 28.5408 39.9531 28.8981C39.5739 29.2555 39.5563 29.8526 39.9137 30.2319L44.7766 35.3913C46.7791 37.516 47.882 40.294 47.882 43.2137V48.0713C47.882 48.8348 48.1544 49.5758 48.649 50.1578L51.0838 53.0222C51.2705 53.2417 51.5361 53.3546 51.8033 53.3546C52.0193 53.3546 52.2363 53.2809 52.4139 53.1301C52.8109 52.7924 52.8592 52.1971 52.5217 51.8001L50.0868 48.9355Z" fill="#018D8F"/>
<path d="M24.6803 10.2803C22.2605 10.2803 20.292 12.2488 20.292 14.6688C20.292 17.0884 22.2605 19.0571 24.6803 19.0571C25.4216 19.0571 26.12 18.8717 26.7329 18.546L28.1815 19.9946C28.3657 20.1788 28.6073 20.2709 28.8487 20.2709C29.0901 20.2709 29.3316 20.1788 29.5158 19.9945C29.8843 19.626 29.8843 19.0287 29.5158 18.6602L28.1749 17.3194C28.7352 16.5825 29.0687 15.6641 29.0687 14.669C29.0688 12.2488 27.1002 10.2803 24.6803 10.2803ZM22.179 14.6688C22.179 13.2895 23.3011 12.1673 24.6803 12.1673C26.0596 12.1673 27.1818 13.2895 27.1818 14.6688C27.1818 16.0481 26.0596 17.1701 24.6803 17.1701C23.3011 17.1701 22.179 16.0479 22.179 14.6688Z" fill="#018D8F"/>
<path d="M27.1161 42.474H19.7367C19.5843 42.474 19.4603 42.3501 19.4603 42.1976V38.1605C19.4603 38.008 19.5843 37.8841 19.7367 37.8841H29.2078C29.7289 37.8841 30.1513 37.4618 30.1513 36.9406C30.1513 36.4194 29.7289 35.9971 29.2078 35.9971H19.7367C18.5438 35.9971 17.5732 36.9676 17.5732 38.1605V42.1976C17.5732 43.3905 18.5438 44.361 19.7367 44.361H27.1161C27.6372 44.361 28.0596 43.9387 28.0596 43.4175C28.0596 42.8963 27.6372 42.474 27.1161 42.474Z" fill="#018D8F"/>
</g>
<defs>
<clipPath id="clip0">
<rect width="64" height="64" fill="white" transform="translate(0.5)"/>
</clipPath>
</defs>
</svg>
